<?xml version="1.0" standalone="no"?>
<!DOCTYPE svg PUBLIC "-//W3C//DTD SVG 20010904//EN"
 "http://www.w3.org/TR/2001/REC-SVG-20010904/DTD/svg10.dtd">
<svg version="1.0" xmlns="http://www.w3.org/2000/svg"
 width="695.000000pt" height="697.000000pt" viewBox="0 0 695.000000 697.000000"
 preserveAspectRatio="xMidYMid meet">
<metadata>
Created by potrace 1.14, written by Peter Selinger 2001-2017
</metadata>
<g transform="translate(0.000000,697.000000) scale(0.100000,-0.100000)"
fill="#000000" stroke="none">
<path d="M3245 6963 c-705 -46 -1391 -314 -1950 -759 -147 -117 -449 -422
-559 -564 -258 -335 -439 -667 -566 -1046 l-38 -111 522 -522 c286 -286 523
-521 526 -521 3 0 3 39 2 87 -5 109 13 310 38 451 54 299 204 668 327 802 148
162 373 179 593 45 117 -72 199 -184 221 -302 18 -93 -2 -173 -76 -317 -123
-237 -159 -380 -160 -631 0 -188 10 -255 60 -411 150 -461 535 -800 1020 -896
127 -25 341 -27 470 -3 559 100 995 550 1080 1115 60 390 -71 806 -343 1091
l-77 80 -120 -212 c-66 -116 -133 -222 -148 -235 -54 -45 -146 -44 -197 4 -16
15 -246 398 -511 852 -447 764 -483 828 -483 871 0 63 29 109 84 136 l45 21
972 4 c968 3 972 3 1000 -18 43 -31 75 -101 68 -147 -3 -23 -53 -123 -122
-243 -64 -113 -112 -209 -107 -213 145 -121 191 -162 250 -223 284 -292 486
-659 579 -1053 44 -184 59 -318 59 -522 l1 -193 554 554 553 553 -41 122
c-417 1225 -1497 2127 -2778 2321 -231 35 -526 48 -748 33z"/>
<path d="M0 3223 c0 -113 43 -382 92 -578 248 -997 931 -1840 1853 -2290 375
-182 736 -286 1170 -337 165 -19 588 -16 760 6 912 115 1687 537 2281 1241
283 335 534 804 657 1230 67 229 114 481 132 700 l7 80 -794 -791 c-812 -811
-893 -885 -1113 -1030 -809 -531 -1814 -620 -2705 -239 -213 91 -473 247 -657
396 -48 39 -447 430 -885 868 l-798 796 0 -52z"/>
</g>
</svg>
