<?xml version="1.0" encoding="utf-8"?>
<!-- Generator: Adobe Illustrator 18.0.0, SVG Export Plug-In . SVG Version: 6.00 Build 0)  -->
<!DOCTYPE svg PUBLIC "-//W3C//DTD SVG 1.1//EN" "http://www.w3.org/Graphics/SVG/1.1/DTD/svg11.dtd">
<svg version="1.1" id="Layer_1" xmlns="http://www.w3.org/2000/svg" xmlns:xlink="http://www.w3.org/1999/xlink" x="0px" y="0px"
	 viewBox="0 0 467.2 244.8" enable-background="new 0 0 467.2 244.8" xml:space="preserve">
<path fill="#DEDFDF" d="M347.2,116.4"/>
<radialGradient id="SVGID_1_" cx="203.9995" cy="337.1224" r="0" gradientTransform="matrix(1.2379 0 0 8.374384e-02 -105.3615 133.6837)" gradientUnits="userSpaceOnUse">
	<stop  offset="0" style="stop-color:#2B8ACA"/>
	<stop  offset="0.3371" style="stop-color:#6685A7;stop-opacity:0.6629"/>
	<stop  offset="1" style="stop-color:#000000;stop-opacity:0"/>
</radialGradient>
<path opacity="0.71" fill="url(#SVGID_1_)" d="M147.2,161.9"/>
<g>
	
		<radialGradient id="SVGID_2_" cx="285.4896" cy="238.1048" r="0" gradientTransform="matrix(1.2379 0 0 8.374384e-02 -105.3615 98.367)" gradientUnits="userSpaceOnUse">
		<stop  offset="0" style="stop-color:#2B8ACA"/>
		<stop  offset="0.3371" style="stop-color:#6685A7;stop-opacity:0.6629"/>
		<stop  offset="1" style="stop-color:#000000;stop-opacity:0"/>
	</radialGradient>
	<path opacity="0.71" fill="url(#SVGID_2_)" d="M248,118.3"/>
	<path fill="#C3C6C8" d="M387.1,26.8c-1-0.4-2-0.7-3.1-1.1l-7.3,19.8c0.9,0.3,1.7,0.6,2.6,0.9c34.5,13.6,51.4,52.8,37.8,87.2
		c-13.6,34.5-52.8,51.4-87.2,37.8c-34.5-13.6-51.4-52.8-37.8-87.2c6.4-16.1,18.5-28.9,34.3-36.2l0.8-0.4l-8.2-19.4l-1.4,0.6
		c-20.7,9.6-36.7,26.5-45,47.6c-17.9,45.3,4.3,96.7,49.6,114.6s96.7-4.3,114.6-49.6S432.4,44.7,387.1,26.8z"/>
	<g>
		<g>
			<path fill="#288DC1" d="M121.7,89.4c-2.7-6.1-6.4-11.5-10.9-16.1c-4.6-4.6-10-8.3-16.1-10.9c-6.1-2.7-12.8-4.1-19.8-4.1
				c-7,0-13.7,1.4-19.9,4c-6.2,2.7-11.6,6.4-16.2,10.9c-4.6,4.6-8.3,10-10.9,16.1c-2.6,6.1-4,12.8-4,20v114.8h24.7v-71.5
				c3,1.8,6.2,3.3,9.5,4.6c5.3,1.9,10.9,2.9,16.8,2.9c7,0,13.7-1.4,19.8-4.1c6.1-2.7,11.5-6.4,16.1-10.9c4.6-4.6,8.3-10,10.9-16.1
				c2.7-6.1,4.1-12.8,4.1-19.8C125.8,102.2,124.4,95.5,121.7,89.4z M101.1,109.2c0,3.5-0.7,6.9-2.1,10.1c-1.4,3.2-3.3,6-5.7,8.4
				c-2.4,2.4-5.2,4.3-8.4,5.7c-6.3,2.8-13.9,2.7-20.2,0.1c-3.2-1.3-6-3.2-8.4-5.6c-2.4-2.4-4.3-5.2-5.7-8.4
				c-1.4-3.2-2.1-6.5-2.1-10.3c0-3.6,0.7-7,2-10.1c1.3-3.2,3.2-6,5.6-8.4c2.4-2.4,5.2-4.3,8.4-5.7c3.2-1.4,6.6-2.1,10.3-2.1
				c3.5,0,6.9,0.7,10.1,2.1c3.2,1.4,6,3.3,8.4,5.7c2.4,2.4,4.3,5.2,5.7,8.4C100.4,102.3,101.1,105.7,101.1,109.2z"/>
			<path fill="#288DC1" d="M377.2,122.9l-1.9,2.4c-2.4,3-5.4,5.5-9,7.3c-6.5,3.4-14.9,3.7-21.7,0.7c-3.2-1.4-6-3.3-8.4-5.7
				c-2.4-2.3-4.2-5.1-5.6-8.3c-1.3-3.1-2-6.5-2-10.1c0-3.5,0.7-6.9,2-10.1c1.3-3.2,3.2-6,5.6-8.3c2.4-2.3,5.2-4.2,8.4-5.6
				c6.9-2.9,15.3-2.6,21.8,0.7c3.5,1.8,6.5,4.2,8.9,7.4l1.8,2.4l19.4-15.1l-1.8-2.4c-4.6-6.1-10.4-10.9-17.3-14.4
				c-6.9-3.5-14.6-5.3-22.7-5.3c-6.9,0-13.5,1.3-19.6,4c-6.1,2.6-11.6,6.3-16.2,10.9c-4.6,4.6-8.3,10-11,16.1
				c-2.7,6.1-4,12.7-4,19.7c0,7,1.3,13.7,4,19.8c2.6,6.1,6.3,11.5,11,16.1c4.6,4.6,10.1,8.2,16.2,10.9c6.1,2.6,12.7,4,19.6,4
				c8.2,0,15.8-1.8,22.7-5.4c6.9-3.5,12.7-8.3,17.3-14.3l1.8-2.4L377.2,122.9z"/>
		</g>
	</g>
	<path fill="#288DC1" d="M285,81.3c-3.6-6.5-8.5-11.8-14.5-15.8c-3.5-2.3-7.4-4.2-11.6-5.4c-8.4-2.6-17.8-2.6-26.2,0
		c-4.2,1.3-8.1,3.1-11.8,5.5c-1.6,1.1-3.2,2.4-4.7,3.7c-1,0.9-2,1.8-2.9,2.8c-0.4-0.5-0.9-0.8-1.3-1.3c-1.9-1.9-4-3.7-6.2-5.3
		c-2-1.3-4-2.4-6.1-3.3c-1.8-0.8-3.7-1.5-5.6-2.1c-4.2-1.3-8.7-1.9-13.1-1.9c-4.5,0-8.9,0.6-13.1,1.9c-1.2,0.4-2.3,0.8-3.5,1.2
		c-0.2,0.1-0.4,0.2-0.5,0.2c-0.8,0.3-1.6,0.7-2.4,1.1c-0.2,0.1-0.4,0.2-0.5,0.2l0,0c-1.6,0.8-3.1,1.6-4.5,2.6
		c-6,4-10.9,9.3-14.5,15.8c-3.6,6.5-5.4,13.7-5.4,21.5l0,56.9l-0.1,0.6h0.1h24.5h0.1l0-57.5c0-2.7,0.5-5.3,1.6-7.7
		c1-2.4,2.5-4.6,4.3-6.4c1.8-1.8,4-3.3,6.4-4.3c0.6-0.3,1.3-0.5,2-0.7c1.8-0.5,3.8-0.8,5.7-0.8c1.9,0,3.8,0.3,5.7,0.8
		c0.7,0.2,1.4,0.4,2,0.7c2.4,1.1,4.6,2.5,6.4,4.3c1.8,1.8,3.3,4,4.3,6.4c1,2.4,1.6,5,1.6,7.7v57.5h0.1h16.3h8.3v-57.5
		c0-2.7,0.5-5.3,1.6-7.7c1-2.4,2.5-4.6,4.3-6.4c1.8-1.8,4-3.3,6.5-4.3c4.9-2.1,10.7-2.1,15.4,0c2.4,1.1,4.6,2.5,6.4,4.3
		c1.8,1.8,3.3,4,4.3,6.4c1,2.4,1.6,5,1.6,7.7v57.5h24.7v-57.5C290.5,95,288.7,87.8,285,81.3z"/>
</g>
</svg>
